<svg width="20" height="20" viewBox="0 0 20 20" fill="none" xmlns="http://www.w3.org/2000/svg">
<path d="M0.292969 16.7109H19.707M6.09117 9.76907C5.58363 9.52025 5.01289 9.38056 4.40953 9.38056C2.29691 9.38056 0.584297 11.0932 0.584297 13.2058C0.584297 13.4517 0.607578 13.6922 0.651914 13.9252M1.0598 15.0531C1.46508 15.7863 2.10363 16.3725 2.87582 16.7109H5.9432C7.29223 16.1197 8.23477 14.7729 8.23477 13.2058C8.23477 12.1421 7.80059 11.1799 7.0998 10.4865M13.3499 12.2738L17.8783 14.5658L18.5914 13.6667L15.0436 10.3226L15.0273 10.2186C14.8965 9.38372 14.2379 8.73103 13.4019 8.60786L12.057 8.40974M12.057 8.40974L10.8821 11.0247L12.3381 11.7617M12.057 8.40974L10.882 11.0247L9.59629 10.6218C8.94418 10.4175 8.32613 10.1186 7.76848 9.73099M12.057 8.40974C11.2528 8.14278 10.6865 7.7345 10.0494 7.35888M5.71625 7.7804L6.64613 8.74298M9.0343 6.85411C8.50469 6.64825 7.87305 6.49653 7.04211 6.45376M5.65668 4.48161C5.68408 4.45752 5.70952 4.43129 5.73277 4.40317C5.97242 4.11321 5.93168 3.68388 5.64172 3.44423C5.35176 3.20458 4.92242 3.24532 4.68277 3.53528C4.4677 3.79548 4.47844 4.16794 4.69246 4.41482" stroke="black" stroke-width="0.585938" stroke-miterlimit="10" stroke-linecap="round" stroke-linejoin="round"/>
<path d="M6.65652 7.24824C7.16703 6.63062 7.08019 5.71613 6.46261 5.20562L5.9641 4.79355C5.34652 4.28304 4.43199 4.36988 3.92148 4.98746C3.41097 5.60503 3.49781 6.51957 4.11539 7.03007L4.6139 7.44214C5.23152 7.95265 6.14601 7.86582 6.65652 7.24824Z" stroke="black" stroke-width="0.585938" stroke-miterlimit="10" stroke-linecap="round" stroke-linejoin="round"/>
<path d="M6.53066 5.26562L6.24941 5.60586C6.1749 5.69601 6.07434 5.76092 5.96151 5.79171C5.84867 5.8225 5.72908 5.81766 5.6191 5.77785L5.35586 5.68258C5.24588 5.64278 5.12629 5.63794 5.01346 5.66873C4.90062 5.69951 4.80007 5.76443 4.72555 5.85457L3.91797 6.83156M7.11395 8.06285L5.7923 10.4191C5.76349 10.4705 5.7221 10.5137 5.67202 10.5446C5.62193 10.5756 5.5648 10.5934 5.50598 10.5962L4.97629 10.6219C4.72485 10.6341 4.48114 10.7127 4.27004 10.8499C4.07023 10.9797 4.13563 11.2875 4.37094 11.3249L5.5352 11.51C5.70368 11.5367 5.87621 11.52 6.03642 11.4614C6.19662 11.4028 6.33919 11.3042 6.45059 11.175L8.4959 8.80277M19.1699 14.1254L18.5913 13.6666L17.8782 14.5657L17.2334 15.9862C17.1861 16.0903 17.1751 16.2073 17.2019 16.3185C17.2288 16.4297 17.2921 16.5287 17.3817 16.5998C17.6036 16.7757 17.9261 16.7385 18.102 16.5166L19.2752 15.0372C19.4979 14.7563 19.4507 14.3481 19.1699 14.1254Z" stroke="black" stroke-width="0.585938" stroke-miterlimit="10" stroke-linecap="round" stroke-linejoin="round"/>
</svg>
