<svg width="20" height="20" viewBox="0 0 20 20" fill="none" xmlns="http://www.w3.org/2000/svg">
<g clip-path="url(#clip0_46_1327)">
<path d="M11.336 3.00586H9.66582C8.94059 3.00586 8.35059 3.5959 8.35059 4.32109V4.98914C8.35059 5.89855 9.09047 6.6384 9.99984 6.6384C10.9092 6.6384 11.6491 5.89852 11.6491 4.98914V3.31902C11.6491 3.2779 11.641 3.23718 11.6253 3.19918C11.6095 3.16119 11.5865 3.12667 11.5574 3.09759C11.5283 3.06851 11.4938 3.04544 11.4558 3.0297C11.4178 3.01396 11.3771 3.00586 11.336 3.00586ZM11.0228 4.98918C11.0228 5.55328 10.5639 6.01215 9.99984 6.01215C9.43574 6.01215 8.97687 5.55328 8.97687 4.98918V4.32109C8.97687 3.94121 9.28594 3.63215 9.66582 3.63215H11.0228V4.98918Z" fill="black"/>
<path d="M19.0187 0.668047H17.9957V0.313164C17.9957 0.272037 17.9877 0.231312 17.9719 0.193315C17.9562 0.155318 17.9331 0.120793 17.904 0.0917122C17.8749 0.0626312 17.8404 0.0395639 17.8024 0.0238277C17.7644 0.0080916 17.7237 -5.12846e-06 17.6826 2.43706e-09H16.3464C16.3053 -5.12846e-06 16.2646 0.0080916 16.2266 0.0238277C16.1886 0.0395639 16.1541 0.0626312 16.125 0.0917122C16.0959 0.120793 16.0728 0.155318 16.0571 0.193315C16.0414 0.231312 16.0333 0.272037 16.0333 0.313164V2.00418H15.2751C15.2189 1.83162 15.116 1.67803 14.9777 1.56051C14.7581 1.37375 14.4673 1.29328 14.1797 1.3402C13.8243 1.39801 13.536 1.66234 13.4184 2.00418H6.58977C6.47828 1.64953 6.18465 1.37285 5.82008 1.31352C5.53238 1.26664 5.2418 1.34703 5.02215 1.53375C4.87662 1.65742 4.77039 1.82092 4.71652 2.00414H3.96648V0.313164C3.96649 0.272037 3.95839 0.231312 3.94266 0.193315C3.92692 0.155318 3.90385 0.120793 3.87477 0.0917122C3.84569 0.0626312 3.81117 0.0395639 3.77317 0.0238277C3.73517 0.0080916 3.69445 -5.12846e-06 3.65332 2.43706e-09H2.31727C2.27614 -5.12846e-06 2.23541 0.0080916 2.19742 0.0238277C2.15942 0.0395639 2.12489 0.0626312 2.09581 0.0917122C2.06673 0.120793 2.04367 0.155318 2.02793 0.193315C2.01219 0.231312 2.0041 0.272037 2.0041 0.313164V0.668086H0.981133C0.940006 0.668081 0.899281 0.676178 0.861284 0.691914C0.823287 0.70765 0.788762 0.730717 0.759681 0.759798C0.7306 0.788879 0.707533 0.823404 0.691797 0.861401C0.67606 0.899398 0.667964 0.940123 0.667969 0.98125V3.65348C0.667964 3.6946 0.67606 3.73533 0.691797 3.77333C0.707533 3.81132 0.7306 3.84585 0.759681 3.87493C0.788762 3.90401 0.823287 3.92708 0.861284 3.94281C0.899281 3.95855 0.940006 3.96665 0.981133 3.96664H2.0041V4.32156C2.0041 4.36269 2.01219 4.40341 2.02793 4.44141C2.04367 4.47941 2.06673 4.51393 2.09581 4.54301C2.12489 4.5721 2.15942 4.59516 2.19742 4.6109C2.23541 4.62664 2.27614 4.63473 2.31727 4.63473H3.6534C3.69453 4.63473 3.73525 4.62664 3.77325 4.6109C3.81124 4.59516 3.84577 4.5721 3.87485 4.54301C3.90393 4.51393 3.927 4.47941 3.94273 4.44141C3.95847 4.40341 3.96657 4.36269 3.96656 4.32156V2.63047H4.67637V4.83363C4.67637 5.44934 4.95457 6.01918 5.43988 6.3975L7.88793 8.36953C7.92933 8.40271 7.96272 8.4448 7.98562 8.49266C8.00852 8.54052 8.02033 8.59292 8.0202 8.64598L8.01816 12.1723L5.24707 14.0754C5.07107 14.1962 4.92713 14.3581 4.8277 14.547C4.72826 14.7359 4.67632 14.9461 4.67637 15.1596V18.0891C4.28848 18.2201 4.00832 18.5872 4.00832 19.0187V19.6868C4.00832 19.7279 4.01641 19.7686 4.03215 19.8066C4.04788 19.8446 4.07095 19.8792 4.10003 19.9082C4.12911 19.9373 4.16364 19.9604 4.20164 19.9761C4.23963 19.9919 4.28036 20 4.32148 20H6.32566C6.36679 20 6.40752 19.9919 6.44551 19.9761C6.48351 19.9604 6.51803 19.9373 6.54712 19.9082C6.5762 19.8792 6.59926 19.8446 6.615 19.8066C6.63074 19.7686 6.63883 19.7279 6.63883 19.6868V15.5777C6.63901 15.5727 6.64087 15.5679 6.6441 15.5641L9.43254 14.2804C9.61047 14.1983 9.80408 14.1558 10 14.1558C10.196 14.1558 10.3896 14.1983 10.5675 14.2804L13.3559 15.5641C13.3591 15.568 13.3612 15.5731 13.3612 15.5777V19.6868C13.3612 19.728 13.3693 19.7687 13.385 19.8067C13.4008 19.8447 13.4238 19.8792 13.4529 19.9083C13.482 19.9374 13.5165 19.9604 13.5545 19.9762C13.5925 19.9919 13.6332 20 13.6744 20H15.6786C15.7197 20 15.7604 19.9919 15.7984 19.9762C15.8364 19.9604 15.8709 19.9374 15.9 19.9083C15.9291 19.8792 15.9522 19.8447 15.9679 19.8067C15.9836 19.7687 15.9917 19.728 15.9917 19.6868V19.0188C15.9917 18.5872 15.7116 18.2201 15.3237 18.0891V15.1596C15.3237 14.9462 15.2718 14.7359 15.1724 14.547C15.0729 14.3581 14.929 14.1963 14.753 14.0755L11.9819 12.1723L11.9798 8.64606C11.9797 8.59299 11.9915 8.54058 12.0144 8.49271C12.0373 8.44485 12.0707 8.40276 12.1121 8.36957L14.5602 6.39754C15.0455 6.01918 15.3237 5.44934 15.3237 4.83367V2.63047H16.0335V4.32148C16.0335 4.36261 16.0416 4.40334 16.0573 4.44133C16.073 4.47933 16.0961 4.51386 16.1252 4.54294C16.1543 4.57202 16.1888 4.59508 16.2268 4.61082C16.2648 4.62656 16.3055 4.63465 16.3466 4.63465H17.6828C17.7239 4.63465 17.7646 4.62656 17.8026 4.61082C17.8406 4.59508 17.8751 4.57202 17.9042 4.54294C17.9333 4.51386 17.9564 4.47933 17.9721 4.44133C17.9878 4.40334 17.9959 4.36261 17.9959 4.32148V3.96656H19.0189C19.06 3.96657 19.1008 3.95847 19.1388 3.94273C19.1768 3.927 19.2113 3.90393 19.2404 3.87485C19.2694 3.84577 19.2925 3.81124 19.3082 3.77325C19.324 3.73525 19.3321 3.69453 19.3321 3.6534V0.981211C19.332 0.898143 19.299 0.818501 19.2402 0.759782C19.1814 0.701062 19.1018 0.668068 19.0187 0.668047ZM2.0041 3.34027H1.2943V1.29438H2.0041V3.34027ZM3.3402 4.00836H2.63039V0.626328H3.3402V4.00836ZM6.63875 2.63047H13.3611V4.83426C13.3611 4.83723 13.3604 4.84016 13.3591 4.84283C13.3578 4.8455 13.3559 4.84783 13.3536 4.84965L10.8117 6.8202C10.7746 6.84665 10.7438 6.88088 10.7214 6.92048C10.6989 6.96009 10.6854 7.00412 10.6817 7.04949C10.6523 7.41051 10.3592 7.68277 9.99992 7.68277C9.64066 7.68277 9.34758 7.41051 9.31812 7.04949C9.31448 7.0049 9.30133 6.96161 9.27954 6.92254C9.25776 6.88346 9.22785 6.84951 9.19184 6.82297L6.64641 4.84969C6.64403 4.84786 6.64211 4.84551 6.64078 4.84282C6.63945 4.84013 6.63876 4.83718 6.63875 4.83418V2.63047ZM7.22371 7.03027L5.83063 5.90809L5.82641 5.90473C5.49352 5.64594 5.30262 5.25551 5.30262 4.83363V2.28148C5.3026 2.23 5.31379 2.17913 5.33542 2.13241C5.35704 2.08569 5.38859 2.04424 5.42785 2.01094C5.50855 1.94238 5.61219 1.91437 5.71941 1.93172C5.88375 1.9584 6.01242 2.12781 6.01242 2.3173V4.83426C6.01242 5.03531 6.10355 5.22137 6.26258 5.34469L7.68633 6.4484L7.22371 7.03027ZM6.01246 19.3737H4.63461V19.0188C4.63461 18.8231 4.79383 18.6639 4.98953 18.6639H6.0125L6.01246 19.3737ZM6.35676 15.0068C6.3464 15.0116 6.33631 15.0169 6.32652 15.0228C6.13277 15.1391 6.01246 15.3517 6.01246 15.5777V18.0376H5.30266V15.1596C5.30264 15.0478 5.32984 14.9377 5.38192 14.8388C5.434 14.7398 5.50938 14.655 5.60156 14.5918L6.95242 13.664L7.52336 14.4697L6.35676 15.0068ZM15.0104 18.6639C15.2061 18.6639 15.3653 18.8231 15.3653 19.0188V19.3737H13.9874V18.6639L15.0104 18.6639ZM14.3984 14.5918C14.4905 14.6551 14.5659 14.7398 14.6179 14.8388C14.67 14.9377 14.6972 15.0478 14.6972 15.1596V18.0376H13.9874V15.5777C13.9874 15.3517 13.867 15.1391 13.6733 15.0228C13.6635 15.0169 13.6535 15.0116 13.6431 15.0068L12.4765 14.4698L13.0475 13.6641L14.3984 14.5918ZM12.5311 13.3095L11.8977 14.2033L10.8293 13.7114C10.5692 13.5915 10.2863 13.5294 9.9999 13.5294C9.71353 13.5294 9.43056 13.5915 9.17051 13.7114L8.10211 14.2034L7.46871 13.3095L8.42695 12.6514H11.5729L12.5311 13.3095ZM11.7191 7.88184C11.6046 7.97363 11.5123 8.09003 11.449 8.22239C11.3857 8.35476 11.353 8.49968 11.3534 8.64641L11.3553 12.0251H8.64453L8.64645 8.64637C8.64682 8.49966 8.61414 8.35475 8.55083 8.2224C8.48753 8.09005 8.39523 7.97367 8.28078 7.88188L7.71144 7.42324L8.18133 6.83227L8.71336 7.24473C8.83047 7.86086 9.36047 8.30922 9.99992 8.30922C10.628 8.30922 11.1672 7.8523 11.286 7.24512L11.8185 6.8323L12.2884 7.42328L11.7191 7.88184ZM14.1734 5.90477L14.1691 5.90812L12.7761 7.03031L12.3134 6.44848L13.7373 5.34465C13.8154 5.28451 13.8785 5.20718 13.9219 5.11868C13.9653 5.03017 13.9877 4.93286 13.9873 4.8343V2.34406C13.9873 2.15453 14.116 1.98516 14.2803 1.95844C14.3876 1.9409 14.4913 1.96914 14.5719 2.0377C14.6112 2.071 14.6427 2.11244 14.6643 2.15915C14.686 2.20587 14.6972 2.25673 14.6971 2.3082V4.83371H14.6972C14.6972 5.25555 14.5063 5.64598 14.1734 5.90477ZM17.3695 4.00836H16.6596V0.626328H17.3695V4.00836ZM18.7055 3.34027H17.9957V1.29438H18.7055V3.34027Z" fill="black"/>
</g>
<defs>
<clipPath id="clip0_46_1327">
<rect width="20" height="20" fill="white"/>
</clipPath>
</defs>
</svg>
