<svg width="20" height="20" viewBox="0 0 20 20" fill="none" xmlns="http://www.w3.org/2000/svg">
<g clip-path="url(#clip0_46_1333)">
<path d="M12.6724 0.834961H11.0022C10.277 0.834961 9.68701 1.42496 9.68701 2.1502V2.81824C9.68701 3.72762 10.4269 4.4675 11.3363 4.4675C12.2456 4.4675 12.9855 3.72762 12.9855 2.81824V1.14812C12.9855 1.06508 12.9525 0.985427 12.8938 0.926698C12.8351 0.86797 12.7555 0.834971 12.6724 0.834961ZM12.3592 2.81824C12.3592 3.3823 11.9003 3.84121 11.3363 3.84121C10.7722 3.84121 10.3133 3.3823 10.3133 2.81824V2.1502C10.3133 1.77031 10.6224 1.46125 11.0022 1.46125H12.3592V2.81824Z" fill="black"/>
<path d="M19.3528 16.8678H19.229L16.4136 9.98554C16.6122 9.91323 16.8016 9.81741 16.9775 9.70011L18.5609 8.64449C19.0111 8.34433 19.1332 7.7339 18.8331 7.2839C18.6877 7.06562 18.4659 6.91711 18.2086 6.86574C17.9516 6.81433 17.69 6.86629 17.4724 7.01172L15.8889 8.06738C15.7758 8.1429 15.6429 8.18315 15.5069 8.18304H14.0083C13.4673 8.18304 13.0271 8.6232 13.0271 9.16425C13.0271 9.70531 13.4673 10.1455 14.0083 10.1455H14.4662L17.2162 16.8678H14.6555V16.8469C14.6555 16.218 14.2116 15.691 13.6208 15.5621L12.4123 11.6635C12.2383 11.0982 11.8255 10.6435 11.2795 10.4158L9.92355 9.85089L11.0577 7.4189C11.1393 7.2439 11.3489 7.16605 11.5249 7.24527L12.3327 7.60883C12.5912 7.72504 12.8652 7.78398 13.1472 7.78398C13.6472 7.78398 14.1253 7.59656 14.4936 7.25609L16.2143 5.66402C16.5783 5.3273 16.6558 4.77644 16.3947 4.38258C16.2336 4.13968 15.977 3.98066 15.6906 3.94621C15.5494 3.92913 15.4061 3.94299 15.2708 3.98681C15.1355 4.03064 15.0113 4.10338 14.9069 4.2L13.1608 5.81558C13.1578 5.81838 13.154 5.82022 13.15 5.82088C13.1459 5.82154 13.1418 5.82099 13.138 5.81929L11.658 5.15328C11.3745 5.02566 11.0387 5.12093 10.8596 5.37953C10.6036 5.74922 10.2291 5.92535 9.94918 5.80789C9.65808 5.6857 9.52191 5.26562 9.62543 4.8091C9.69344 4.50914 9.5407 4.20047 9.26223 4.07515L7.64262 3.34629C6.945 3.03238 6.11891 3.15121 5.53805 3.64906L3.71012 5.21578C3.33352 5.53859 3.2348 6.08644 3.48051 6.49015C3.63211 6.73918 3.8825 6.90793 4.16758 6.9532C4.30805 6.97564 4.45172 6.96721 4.5886 6.92849C4.72548 6.88978 4.85229 6.82171 4.9602 6.72902L6.81531 5.13898C6.81833 5.1364 6.82202 5.13472 6.82596 5.13416C6.8299 5.13359 6.83391 5.13415 6.83754 5.13578L7.60836 5.48265C7.69566 5.52195 7.76211 5.59297 7.79543 5.68269C7.82875 5.77242 7.82488 5.86957 7.78441 5.95629L5.14613 11.6141C5.14403 11.6188 5.1402 11.6226 5.13542 11.6246C5.13064 11.6266 5.12527 11.6268 5.12039 11.625L1.21082 10.2905C1.17213 10.2765 1.13107 10.2704 1.08999 10.2723C1.04891 10.2742 1.00862 10.2843 0.971411 10.3018C0.934205 10.3193 0.900813 10.344 0.873145 10.3744C0.845476 10.4048 0.824072 10.4404 0.810156 10.4791L0.0185156 12.6792C-0.00959496 12.7574 -0.00551411 12.8435 0.0298606 12.9186C0.0652353 12.9937 0.129007 13.0518 0.207148 13.0799L0.521445 13.193C0.663846 13.2444 0.81408 13.2707 0.965469 13.2707C1.40512 13.2707 1.8232 13.0483 2.06715 12.6757L4.73398 13.5636C4.93627 13.6313 5.14815 13.6658 5.36144 13.6658C6.1266 13.6658 6.83035 13.2185 7.15594 12.5257L7.76726 11.3316L10.5934 12.4999C10.5995 12.5025 10.6034 12.5068 10.6059 12.5147L11.691 15.9782V16.8678H0.647187C0.290313 16.8678 0 17.1581 0 17.515V18.517C0 18.8739 0.290313 19.1642 0.647187 19.1642H19.3527C19.7096 19.1642 19.9999 18.8739 19.9999 18.517V17.515C20 17.1581 19.7096 16.8678 19.3528 16.8678ZM7.38141 4.69394L7.09434 4.56476C6.8668 4.46234 6.59719 4.50109 6.40762 4.66359L4.55238 6.25375C4.51334 6.28726 4.46747 6.31186 4.41795 6.32586C4.36844 6.33985 4.31647 6.34289 4.26566 6.33476C4.16094 6.31816 4.07207 6.25773 4.01539 6.16461C3.92887 6.02254 3.97375 5.81468 4.11758 5.6914L5.94547 4.12465C6.34289 3.78402 6.90812 3.70273 7.38547 3.9175L7.68559 4.05258L7.38141 4.69394ZM1.615 12.1886C1.48637 12.5461 1.0909 12.7323 0.733477 12.6037L0.713867 12.5966L1.29344 10.9858L1.96133 11.2261L1.615 12.1886ZM14.0083 9.51914C13.8126 9.51914 13.6534 9.35992 13.6534 9.16422C13.6534 8.96851 13.8126 8.80929 14.0083 8.80929H15.5068C15.7672 8.80929 16.0193 8.73297 16.2362 8.58855L17.82 7.53265C17.8586 7.50669 17.902 7.48866 17.9477 7.4796C17.9933 7.47055 18.0404 7.47066 18.086 7.47992C18.1318 7.48893 18.1754 7.50695 18.2141 7.53294C18.2529 7.55892 18.2862 7.59235 18.312 7.63129C18.3379 7.67 18.3559 7.71348 18.365 7.75921C18.374 7.80494 18.3739 7.85201 18.3646 7.89769C18.3556 7.94344 18.3376 7.98695 18.3117 8.02569C18.2858 8.06443 18.2524 8.09764 18.2135 8.1234L16.6301 9.17902C16.2977 9.40119 15.9067 9.51957 15.5069 9.51914H14.0083ZM15.1428 10.1454H15.5068C15.6039 10.1454 15.7003 10.1401 15.7959 10.1297L18.5523 16.8677H17.8929L15.1428 10.1454ZM14.0292 16.8469V16.8677H12.3173V16.1579H13.3403C13.7202 16.1579 14.0292 16.467 14.0292 16.8469ZM12.607 6.26715L12.881 6.39039C12.9968 6.44267 13.1255 6.45964 13.2509 6.43916C13.3763 6.41868 13.4929 6.36168 13.5861 6.27527L15.332 4.6598C15.3698 4.62481 15.4148 4.59847 15.4638 4.58262C15.5128 4.56677 15.5647 4.5618 15.6158 4.56804C15.7212 4.58074 15.8124 4.63773 15.8727 4.72867C15.9644 4.86707 15.9277 5.07601 15.789 5.20433L14.0683 6.79633C13.8162 7.02937 13.4891 7.15769 13.1471 7.15769C12.9549 7.15781 12.7648 7.11689 12.5896 7.03765L12.3029 6.90859L12.607 6.26715ZM6.5959 12.2452C6.59415 12.2486 6.59247 12.2521 6.59086 12.2556C6.36883 12.7318 5.88621 13.0395 5.36144 13.0395C5.21542 13.0394 5.07038 13.0157 4.93191 12.9694L2.31336 12.0976L2.5532 11.4311L4.92184 12.2191C5.23391 12.3237 5.57426 12.1775 5.71359 11.8789L5.7307 11.8422L6.61504 12.2078L6.5959 12.2452ZM9.96515 11.5624L7.73965 10.6424C7.66695 10.6123 7.5856 10.6107 7.51178 10.6379C7.43796 10.6651 7.37708 10.7191 7.34125 10.7891L6.90133 11.6485L5.99562 11.2741L8.35191 6.22109C8.46371 5.98125 8.47457 5.71261 8.38238 5.46461C8.3014 5.24679 8.14984 5.06886 7.9507 4.95523L8.25687 4.30965L9.00516 4.64636C9.01445 4.65058 9.01656 4.66191 9.01461 4.67066C8.84101 5.43636 9.12562 6.14156 9.7068 6.38543C10.2624 6.61863 10.9482 6.3516 11.3745 5.73617C11.3805 5.72754 11.3914 5.72019 11.401 5.72449L12.0359 6.01015L11.731 6.65308C11.2555 6.47054 10.7079 6.68734 10.4901 7.15429L9.345 9.6098L8.11555 9.10152C8.03899 9.07084 7.95343 9.0716 7.87743 9.10362C7.80144 9.13565 7.74114 9.19636 7.70963 9.27257C7.67813 9.34879 7.67796 9.43435 7.70916 9.51069C7.74036 9.58703 7.80042 9.64798 7.87629 9.68031L10.3139 10.692L9.96515 11.5624ZM11.2039 12.3289C11.176 12.2379 11.1283 12.1541 11.0643 12.0837C11.0002 12.0132 10.9214 11.9578 10.8334 11.9214L10.544 11.8018L10.892 10.9329L11.0384 10.994C11.2226 11.0705 11.3876 11.1868 11.5217 11.3345C11.6557 11.4822 11.7555 11.6576 11.8138 11.8484L12.9556 15.5317H12.2074L11.2039 12.3289ZM19.3736 18.517C19.3736 18.5226 19.3714 18.5279 19.3675 18.5318C19.3636 18.5357 19.3583 18.5379 19.3528 18.5379H0.647227C0.641694 18.5379 0.636389 18.5357 0.632477 18.5318C0.628565 18.5279 0.626367 18.5226 0.626367 18.517V17.515C0.626367 17.5034 0.635703 17.4941 0.647227 17.4941H19.3528C19.3643 17.4941 19.3736 17.5034 19.3736 17.515V18.517Z" fill="black"/>
</g>
<defs>
<clipPath id="clip0_46_1333">
<rect width="20" height="20" fill="white"/>
</clipPath>
</defs>
</svg>
